<svg width="21" height="20" viewBox="0 0 21 20" fill="none" xmlns="http://www.w3.org/2000/svg">
<path d="M10.2966 0.333984C4.88662 0.333984 0.5 4.71865 0.5 10.1263C0.5 14.135 2.91417 17.5797 6.36486 19.0967C6.33862 18.4147 6.36049 17.5929 6.53543 16.8497C6.72349 16.0541 7.795 11.512 7.795 11.512C7.795 11.512 7.4801 10.8869 7.4801 9.9645C7.4801 8.51315 8.31982 7.42901 9.36946 7.42901C10.2616 7.42901 10.6903 8.09785 10.6903 8.89785C10.6903 9.79401 10.1173 11.1317 9.8243 12.3732C9.57938 13.4137 10.3447 14.2574 11.3725 14.2574C13.2269 14.2574 14.4777 11.8749 14.4777 9.05085C14.4777 6.90442 13.0301 5.30006 10.4016 5.30006C7.432 5.30006 5.57763 7.51644 5.57763 9.99073C5.57763 10.8432 5.8313 11.4465 6.22491 11.9098C6.40422 12.124 6.43046 12.2115 6.36486 12.4563C6.31675 12.6355 6.21179 13.0683 6.16368 13.2432C6.09808 13.4923 5.8969 13.5798 5.67385 13.488C4.30494 12.9284 3.66641 11.4333 3.66641 9.74593C3.66641 6.96562 6.01498 3.63013 10.6684 3.63013C14.4077 3.63013 16.87 6.33612 16.87 9.23883C16.87 13.0814 14.7314 15.9492 11.5824 15.9492C10.5241 15.9492 9.53128 15.3765 9.19014 14.7295C9.19014 14.7295 8.62159 16.9852 8.49913 17.4224C8.29357 18.1786 7.88684 18.9305 7.51509 19.5207C8.41686 19.7866 9.35208 19.9221 10.2923 19.9229C15.7023 19.9229 20.0889 15.5382 20.0889 10.1306C20.0889 4.72302 15.7067 0.333984 10.2966 0.333984Z" fill="#274C5B"/>
</svg>
