<svg width="45" height="45" viewBox="0 0 45 45" fill="none" xmlns="http://www.w3.org/2000/svg">
<path fill-rule="evenodd" clip-rule="evenodd" d="M10.7106 1.18387C11.0376 1.44061 11.4063 1.78728 11.8333 2.209C12.7425 3.10377 13.8007 4.54127 14.7112 5.92572C15.6314 7.32494 16.4829 8.79626 16.9593 9.81809L16.9599 9.81934C17.2314 10.4033 17.4745 10.9288 17.645 11.3886C17.8181 11.8552 17.9598 12.3628 17.9607 12.9144C17.9626 14.0678 17.3376 14.9607 16.718 15.8043C16.5436 16.0417 16.3942 16.2379 16.2646 16.4081C15.9815 16.7798 15.7927 17.0278 15.6425 17.3126C15.492 17.5981 15.4457 17.8129 15.518 18.1494C15.6188 18.6189 16.0503 19.6265 16.8783 20.9348C17.6805 22.2022 18.7785 23.6314 20.0905 24.9392C21.4024 26.2468 22.8091 27.3159 24.0516 28.0898C25.33 28.886 26.3213 29.2993 26.8035 29.4022C27.15 29.4761 27.3721 29.4283 27.6583 29.2793C27.9522 29.1263 28.215 28.9257 28.6162 28.6194C28.7719 28.5005 28.9485 28.3657 29.1558 28.2116L29.1631 28.2063C30.0141 27.5741 30.9339 26.8907 32.0973 26.8919C32.6704 26.8925 33.1869 27.0543 33.6473 27.2422C34.088 27.4221 34.5951 27.6775 35.1556 27.9599L35.2 27.9822C36.1768 28.4748 37.6318 29.3105 39.0402 30.2216C40.425 31.1175 41.8808 32.1599 42.7848 33.0707L42.786 33.0719C43.2089 33.4991 43.5565 33.8677 43.8139 34.1945C44.0634 34.5112 44.3316 34.9143 44.4445 35.4124C44.5714 35.9724 44.4568 36.4388 44.3374 36.7659C44.2835 36.9137 44.2196 37.0561 44.1729 37.1599C44.1657 37.1761 44.1586 37.1919 44.1516 37.2073C44.1083 37.3033 44.0701 37.3881 44.0296 37.485L44.0277 37.4895C43.6176 38.4619 43.1188 39.3945 42.5375 40.2754L42.5341 40.2804C41.3977 41.9877 40.3341 43.0951 38.6831 43.8641C37.8264 44.2632 36.6023 44.667 34.6944 44.4291C32.8563 44.1999 30.4571 43.3851 27.174 41.5464C21.9177 38.5987 18.2722 36.0586 13.5688 31.3686C8.87854 26.6918 6.57503 23.6418 3.34553 17.7754C0.0953796 11.8714 0.113199 8.25365 1.02722 6.30064C1.79942 4.65064 2.91809 3.59202 4.62 2.46138L4.6264 2.45713C5.50833 1.87773 6.44148 1.38032 7.41415 0.971105L7.42028 0.968526C7.51801 0.927917 7.6036 0.889567 7.70027 0.846234C7.71541 0.839446 7.73083 0.832535 7.74661 0.825474C7.85069 0.778901 7.99319 0.715363 8.14097 0.661687C8.46759 0.543056 8.9331 0.428967 9.4921 0.555005C9.99005 0.667279 10.3932 0.934595 10.7106 1.18387ZM8.57468 3.73754C7.77303 4.07502 7.00388 4.485 6.27681 4.96238C4.82711 5.92586 4.19595 6.60739 3.74437 7.57228C3.43428 8.23487 2.90213 10.7492 5.97362 16.3286C9.06577 21.9456 11.1975 24.7675 15.6871 29.2443C20.1633 33.7077 23.5774 36.0898 28.6399 38.9289C31.7395 40.6648 33.7559 41.2889 35.0655 41.4522C36.3054 41.6067 36.9613 41.3567 37.4164 41.1447C38.3885 40.6919 39.0731 40.0653 40.035 38.6209C40.5137 37.8952 40.9246 37.1269 41.2626 36.326C41.3158 36.1986 41.3678 36.0826 41.4091 35.9912C41.2608 35.8112 41.0267 35.559 40.6555 35.1841C39.9944 34.5179 38.7723 33.6213 37.4107 32.7405C36.073 31.8752 34.7129 31.0965 33.8505 30.6616C33.2312 30.3496 32.8307 30.1492 32.5136 30.0197C32.2046 29.8936 32.1051 29.8919 32.0942 29.8919C32.0889 29.891 31.9582 29.8671 30.9451 30.6196C30.8376 30.6996 30.722 30.7882 30.6001 30.8816C30.1396 31.2346 29.5895 31.6562 29.0434 31.9404C28.2309 32.3633 27.3008 32.5757 26.1778 32.3362C25.1905 32.1256 23.8503 31.4987 22.4656 30.6363C21.045 29.7515 19.457 28.5435 17.9727 27.064C16.4886 25.5848 15.2537 23.9775 14.3434 22.5392C13.4589 21.1417 12.7984 19.7741 12.5848 18.7791C12.3426 17.6511 12.5629 16.7212 12.9887 15.9135C13.2643 15.3908 13.6751 14.8522 14.0179 14.4027C14.1198 14.2691 14.2156 14.1434 14.3001 14.0284M8.57468 3.73754C8.70462 3.68349 8.82261 3.63079 8.91507 3.58932C9.09545 3.73729 9.34866 3.97159 9.72608 4.34437L9.72823 4.34649C10.4016 5.00894 11.3186 6.22682 12.2047 7.57417C13.0814 8.90724 13.8481 10.2446 14.2401 11.0854M14.2401 11.0854C14.5251 11.6982 14.712 12.1076 14.8323 12.432ZM14.8323 12.432C14.9502 12.7499 14.9606 12.876 14.9607 12.9194ZM14.9607 12.9194C14.9607 12.9204 14.9607 12.9216 14.9607 12.9228ZM14.9607 12.9228C14.9615 12.9647 14.9642 13.1242 14.3001 14.0284Z" fill="#0084B8"/>
</svg>
