<svg width="20" height="19" viewBox="0 0 20 19" fill="none" xmlns="http://www.w3.org/2000/svg">
<path fill-rule="evenodd" clip-rule="evenodd" d="M19.7828 9.61831C19.7828 4.49121 15.4657 0.333984 10.1414 0.333984C4.81712 0.333984 0.5 4.49121 0.5 9.61831C0.5 14.2522 4.02514 18.0932 8.63494 18.7903V12.3029H6.18628V9.61831H8.63494V7.57286C8.63494 5.24639 10.0747 3.96026 12.2767 3.96026C13.3317 3.96026 14.4353 4.1418 14.4353 4.1418V6.42682H13.2189C12.0219 6.42682 11.6475 7.14221 11.6475 7.8775V9.61831H14.3212L13.8942 12.3029H11.6479V18.7911C16.2577 18.0944 19.7828 14.2534 19.7828 9.61831V9.61831Z" fill="#274C5B"/>
</svg>
