<svg width="20" height="19" viewBox="0 0 20 19" fill="none" xmlns="http://www.w3.org/2000/svg">
<path d="M14.1585 1.88123C15.2231 1.88429 16.2431 2.29288 16.9958 3.01774C17.7486 3.74261 18.1729 4.72486 18.1761 5.74998V13.4866C18.1729 14.5118 17.7486 15.494 16.9958 16.2189C16.2431 16.9437 15.2231 17.3523 14.1585 17.3554H6.1243C5.05976 17.3523 4.03973 16.9437 3.28698 16.2189C2.53423 15.494 2.10994 14.5118 2.10676 13.4866V5.74998C2.10994 4.72486 2.53423 3.74261 3.28698 3.01774C4.03973 2.29288 5.05976 1.88429 6.1243 1.88123H14.1585V1.88123ZM14.1585 0.333984H6.1243C3.03087 0.333984 0.5 2.77112 0.5 5.74998V13.4866C0.5 16.4655 3.03087 18.9026 6.1243 18.9026H14.1585C17.252 18.9026 19.7828 16.4655 19.7828 13.4866V5.74998C19.7828 2.77112 17.252 0.333984 14.1585 0.333984V0.333984Z" fill="#274C5B"/>
<path d="M15.3638 5.75077C15.1254 5.75077 14.8924 5.6827 14.6942 5.55518C14.496 5.42766 14.3416 5.24641 14.2504 5.03435C14.1591 4.82229 14.1353 4.58894 14.1818 4.36382C14.2283 4.1387 14.3431 3.93191 14.5116 3.7696C14.6802 3.6073 14.8949 3.49677 15.1287 3.45199C15.3625 3.40721 15.6048 3.43019 15.825 3.51803C16.0452 3.60587 16.2334 3.75462 16.3659 3.94547C16.4983 4.13632 16.569 4.3607 16.569 4.59023C16.5693 4.74272 16.5384 4.89378 16.4779 5.03474C16.4175 5.17569 16.3287 5.30375 16.2167 5.41159C16.1048 5.51942 15.9718 5.60489 15.8254 5.6631C15.679 5.7213 15.5222 5.7511 15.3638 5.75077V5.75077ZM10.1415 6.52419C10.7772 6.52419 11.3986 6.7057 11.9271 7.04577C12.4556 7.38585 12.8676 7.86921 13.1108 8.43473C13.3541 9.00025 13.4177 9.62253 13.2937 10.2229C13.1697 10.8232 12.8636 11.3747 12.4141 11.8075C11.9646 12.2404 11.392 12.5351 10.7685 12.6545C10.1451 12.774 9.49886 12.7127 8.91158 12.4784C8.32431 12.2442 7.82236 11.8475 7.46921 11.3385C7.11606 10.8296 6.92756 10.2312 6.92756 9.6191C6.92847 8.79855 7.26738 8.01185 7.86991 7.43163C8.47245 6.85142 9.2894 6.52506 10.1415 6.52419V6.52419ZM10.1415 4.97694C9.18806 4.97694 8.25603 5.24919 7.46327 5.75928C6.67051 6.26937 6.05263 6.99438 5.68776 7.84262C5.32289 8.69086 5.22742 9.62425 5.41343 10.5247C5.59944 11.4252 6.05857 12.2524 6.73275 12.9016C7.40694 13.5508 8.26591 13.9929 9.20104 14.1721C10.1362 14.3512 11.1054 14.2593 11.9863 13.9079C12.8672 13.5565 13.6201 12.9615 14.1498 12.1981C14.6795 11.4347 14.9622 10.5372 14.9622 9.6191C14.9622 8.38792 14.4543 7.20717 13.5503 6.3366C12.6462 5.46602 11.42 4.97694 10.1415 4.97694V4.97694Z" fill="#274C5B"/>
</svg>
