<svg width="42" height="31" viewBox="0 0 42 31" fill="none" xmlns="http://www.w3.org/2000/svg">
<path fill-rule="evenodd" clip-rule="evenodd" d="M34 3H8C5.23858 3 3 5.23858 3 8V23C3 25.7614 5.23858 28 8 28H34C36.7614 28 39 25.7614 39 23V8C39 5.23858 36.7614 3 34 3ZM8 0C3.58172 0 0 3.58172 0 8V23C0 27.4183 3.58172 31 8 31H34C38.4183 31 42 27.4183 42 23V8C42 3.58172 38.4183 0 34 0H8Z" fill="#0084B8"/>
<path fill-rule="evenodd" clip-rule="evenodd" d="M39.9902 4.12605L23.7952 18.3651C22.0819 19.8715 19.5125 19.8575 17.8158 18.3325L1.99707 4.11517L4.00244 1.88392L19.8212 16.1013C20.3867 16.6096 21.2432 16.6142 21.8143 16.1121L38.0093 1.87305L39.9902 4.12605Z" fill="#0084B8"/>
</svg>
