<svg width="88" height="89" viewBox="0 0 88 89" fill="none" xmlns="http://www.w3.org/2000/svg">
<path d="M34.9966 57.6655V31.142C34.9971 30.8101 35.0845 30.4845 35.2496 30.1993C35.4147 29.9141 35.6515 29.6797 35.935 29.5208C36.2186 29.3619 36.5385 29.2843 36.8613 29.2961C37.1841 29.3079 37.4978 29.4087 37.7697 29.5879L57.8514 42.8459C58.1057 43.0133 58.3149 43.2437 58.4598 43.516C58.6047 43.7882 58.6807 44.0935 58.6807 44.4038C58.6807 44.714 58.6047 45.0193 58.4598 45.2916C58.3149 45.5638 58.1057 45.7942 57.8514 45.9616L37.7697 59.2233C37.4978 59.4025 37.1841 59.5033 36.8613 59.5151C36.5385 59.5269 36.2186 59.4493 35.935 59.2904C35.6515 59.1315 35.4147 58.8971 35.2496 58.6119C35.0845 58.3267 34.9971 58.0011 34.9966 57.6692V57.6655Z" fill="white"/>
<path d="M4.38428 44.4032C4.38428 21.924 22.1214 3.7002 44.0002 3.7002C65.879 3.7002 83.6162 21.924 83.6162 44.4032C83.6162 66.8823 65.879 85.1062 44.0002 85.1062C22.1214 85.1062 4.38428 66.8823 4.38428 44.4032ZM44.0002 9.2506C34.9262 9.2506 26.2238 12.9542 19.8074 19.5466C13.3911 26.1389 9.78645 35.0801 9.78645 44.4032C9.78645 53.7262 13.3911 62.6674 19.8074 69.2598C26.2238 75.8522 34.9262 79.5558 44.0002 79.5558C53.0743 79.5558 61.7767 75.8522 68.193 69.2598C74.6093 62.6674 78.214 53.7262 78.214 44.4032C78.214 35.0801 74.6093 26.1389 68.193 19.5466C61.7767 12.9542 53.0743 9.2506 44.0002 9.2506Z" fill="white"/>
</svg>
