<svg width="22" height="17" viewBox="0 0 22 17" fill="none" xmlns="http://www.w3.org/2000/svg">
<path d="M21.1602 2.2924C20.3852 2.62914 19.5652 2.851 18.7261 2.95095C19.6079 2.43461 20.2711 1.6143 20.5912 0.643894C19.7575 1.13138 18.8469 1.47343 17.8984 1.65538C17.4991 1.23681 17.0187 0.903827 16.4866 0.676668C15.9546 0.44951 15.3818 0.332922 14.8033 0.333992C12.4609 0.333992 10.5654 2.20201 10.5654 4.50476C10.5637 4.82507 10.6004 5.14442 10.6747 5.45599C8.99507 5.37725 7.35036 4.94878 5.84581 4.19798C4.34126 3.44719 3.00999 2.39061 1.93717 1.09584C1.5608 1.73033 1.36176 2.45426 1.36084 3.19198C1.36084 4.63819 2.11537 5.91654 3.25469 6.66547C2.57967 6.64945 1.91849 6.47079 1.32727 6.14466V6.19631C1.32727 8.21929 2.7907 9.90223 4.72759 10.2853C4.36336 10.3824 3.98803 10.4316 3.61108 10.4316C3.34361 10.4321 3.07674 10.4062 2.81437 10.3542C3.35283 12.0113 4.91999 13.2165 6.77639 13.2509C5.26793 14.4134 3.41593 15.0418 1.51149 15.0371C1.17344 15.0366 0.835713 15.0165 0.5 14.9769C2.4374 16.214 4.68947 16.8684 6.98815 16.8621C14.7943 16.8621 19.0589 10.5048 19.0589 4.99114C19.0589 4.81036 19.0541 4.62958 19.0455 4.45311C19.8733 3.86432 20.5893 3.13263 21.1602 2.2924V2.2924Z" fill="#274C5B"/>
</svg>
