<svg xmlns="http://www.w3.org/2000/svg"><symbol id="icon-chevron-right" viewBox="0 0 24 25"><path fill-rule="evenodd" clip-rule="evenodd" d="M7.293 4.793a1 1 0 0 1 1.414 0l7 7a1 1 0 0 1 0 1.414l-7 7a1 1 0 0 1-1.414-1.414l6.293-6.293-6.293-6.293a1 1 0 0 1 0-1.414Z"/></symbol><symbol id="icon-crochet" viewBox="0 0 21 15"><path d="M20.56.44a1.502 1.502 0 0 1 0 2.122L8.563 14.561a1.502 1.502 0 0 1-2.123 0l-6-6a1.502 1.502 0 0 1 2.124-2.123l4.94 4.936L18.443.439a1.502 1.502 0 0 1 2.122 0h-.004Z"/></symbol><symbol id="icon-down" viewBox="0 0 24 14"><path fill-rule="evenodd" clip-rule="evenodd" d="m23.523 2.782-10.37 10.37a1.63 1.63 0 0 1-2.305 0L.478 2.782A1.63 1.63 0 0 1 2.781.477L12 9.695 21.218.477a1.63 1.63 0 1 1 2.305 2.305Z"/></symbol><symbol id="icon-facebook" viewBox="0 0 20 19"><path fill-rule="evenodd" clip-rule="evenodd" d="M19.783 9.618c0-5.127-4.317-9.284-9.642-9.284C4.817.334.5 4.491.5 9.618c0 4.634 3.525 8.475 8.135 9.172v-6.487H6.186V9.618h2.449V7.573c0-2.327 1.44-3.613 3.642-3.613 1.055 0 2.158.182 2.158.182v2.285H13.22c-1.197 0-1.571.715-1.571 1.45v1.741h2.673l-.427 2.685h-2.246v6.488c4.61-.697 8.135-4.538 8.135-9.173Z"/></symbol><symbol id="icon-fleche-droite" viewBox="0 0 9 8"><path fill-rule="evenodd" clip-rule="evenodd" d="M4.105.294a.5.5 0 0 1 .706-.036l3.395 3.064a.5.5 0 0 1 0 .743L4.811 7.129a.5.5 0 1 1-.67-.742l2.43-2.194H.516a.5.5 0 0 1 0-1h6.055L4.141 1a.5.5 0 0 1-.036-.706Z"/></symbol><symbol id="icon-fleche" viewBox="0 0 9 8"><path d="m4.476.629 3.395 3.064-3.395 3.065M7.4 3.693H.516" stroke-linecap="round" stroke-linejoin="round"/></symbol><symbol id="icon-insta" viewBox="0 0 20 19"><path d="M14.159 1.881a4.109 4.109 0 0 1 2.837 1.137 3.81 3.81 0 0 1 1.18 2.732v7.737a3.81 3.81 0 0 1-1.18 2.732 4.11 4.11 0 0 1-2.837 1.136H6.123a4.11 4.11 0 0 1-2.837-1.136 3.81 3.81 0 0 1-1.18-2.732V5.75a3.81 3.81 0 0 1 1.18-2.732A4.11 4.11 0 0 1 6.124 1.88h8.035Zm0-1.547H6.123C3.031.334.5 2.771.5 5.75v7.737c0 2.978 2.53 5.416 5.624 5.416h8.035c3.093 0 5.624-2.438 5.624-5.416V5.75c0-2.979-2.531-5.416-5.625-5.416Z"/><path d="M15.364 5.75c-.239 0-.472-.067-.67-.195a1.17 1.17 0 0 1-.444-.52 1.12 1.12 0 0 1-.068-.671 1.14 1.14 0 0 1 .33-.594 1.22 1.22 0 0 1 .617-.318c.234-.045.476-.022.696.066.22.088.408.237.54.427a1.13 1.13 0 0 1-.148 1.467 1.243 1.243 0 0 1-.853.34V5.75Zm-5.223.774c.636 0 1.258.182 1.786.522.529.34.94.823 1.184 1.389a2.99 2.99 0 0 1 .183 1.788 3.06 3.06 0 0 1-.88 1.584 3.253 3.253 0 0 1-1.646.848 3.322 3.322 0 0 1-1.856-.177 3.19 3.19 0 0 1-1.443-1.14 3.014 3.014 0 0 1-.541-1.719c0-.82.34-1.607.942-2.187a3.281 3.281 0 0 1 2.272-.908Zm0-1.547c-.953 0-1.885.272-2.678.782a4.685 4.685 0 0 0-1.775 2.084 4.483 4.483 0 0 0-.275 2.682 4.6 4.6 0 0 0 1.32 2.377 4.882 4.882 0 0 0 2.468 1.27c.935.18 1.904.087 2.785-.264a4.787 4.787 0 0 0 2.164-1.71 4.52 4.52 0 0 0 .812-2.579 4.557 4.557 0 0 0-1.412-3.282 4.917 4.917 0 0 0-3.409-1.36Z"/></symbol><symbol id="icon-mail" viewBox="0 0 42 31"><path fill-rule="evenodd" clip-rule="evenodd" d="M34 3H8a5 5 0 0 0-5 5v15a5 5 0 0 0 5 5h26a5 5 0 0 0 5-5V8a5 5 0 0 0-5-5ZM8 0a8 8 0 0 0-8 8v15a8 8 0 0 0 8 8h26a8 8 0 0 0 8-8V8a8 8 0 0 0-8-8H8Z"/><path fill-rule="evenodd" clip-rule="evenodd" d="m39.99 4.126-16.195 14.24a4.5 4.5 0 0 1-5.98-.034L1.998 4.115l2.005-2.231L19.822 16.1a1.5 1.5 0 0 0 1.992.011L38.01 1.873l1.981 2.253Z"/></symbol><symbol id="icon-pintrest" viewBox="0 0 21 20"><path d="M10.297.334C4.887.334.5 4.719.5 10.126c0 4.009 2.414 7.454 5.865 8.97-.026-.681-.005-1.503.17-2.246l1.26-5.338s-.315-.625-.315-1.548c0-1.45.84-2.535 1.89-2.535.892 0 1.32.669 1.32 1.469 0 .896-.573 2.234-.866 3.475-.245 1.04.52 1.884 1.549 1.884 1.854 0 3.105-2.382 3.105-5.206 0-2.147-1.448-3.75-4.076-3.75-2.97 0-4.824 2.215-4.824 4.69 0 .852.253 1.456.647 1.919.18.214.205.301.14.546-.048.18-.153.612-.201.787-.066.25-.267.337-.49.245-1.37-.56-2.008-2.055-2.008-3.742 0-2.78 2.349-6.116 7.002-6.116 3.74 0 6.202 2.706 6.202 5.609 0 3.842-2.139 6.71-5.288 6.71-1.058 0-2.05-.572-2.392-1.22 0 0-.568 2.256-.69 2.693-.206.757-.613 1.508-.985 2.099a9.85 9.85 0 0 0 2.777.402c5.41 0 9.797-4.385 9.797-9.792 0-5.408-4.382-9.797-9.792-9.797Z"/></symbol><symbol id="icon-play" viewBox="0 0 88 89"><path d="M34.997 57.666V31.142c0-.332.087-.657.253-.943.165-.285.401-.52.685-.678a1.762 1.762 0 0 1 1.835.067l20.08 13.258c.255.167.464.398.609.67a1.89 1.89 0 0 1 0 1.776 1.831 1.831 0 0 1-.609.67L37.77 59.223a1.767 1.767 0 0 1-1.835.067 1.824 1.824 0 0 1-.685-.678 1.888 1.888 0 0 1-.253-.943v-.003Z"/><path d="M4.384 44.403C4.384 21.924 22.121 3.7 44 3.7s39.616 18.224 39.616 40.703c0 22.48-17.737 40.703-39.616 40.703S4.384 66.882 4.384 44.403ZM44 9.251c-9.074 0-17.776 3.703-24.193 10.296-6.416 6.592-10.02 15.533-10.02 24.856 0 9.323 3.604 18.264 10.02 24.857C26.224 75.852 34.927 79.556 44 79.556c9.074 0 17.777-3.704 24.193-10.296 6.416-6.593 10.021-15.534 10.021-24.857 0-9.323-3.605-18.264-10.021-24.856C61.777 12.954 53.074 9.25 44 9.25Z"/></symbol><symbol id="icon-telephone" viewBox="0 0 45 45"><path fill-rule="evenodd" clip-rule="evenodd" d="M10.71 1.184c.328.257.696.603 1.123 1.025.91.895 1.968 2.332 2.878 3.717.92 1.399 1.772 2.87 2.248 3.892v.001c.272.584.515 1.11.686 1.57.173.466.315.974.316 1.525.002 1.154-.623 2.047-1.243 2.89-.174.238-.324.434-.453.604-.284.372-.472.62-.623.905-.15.285-.196.5-.124.836.1.47.532 1.477 1.36 2.786a23.598 23.598 0 0 0 3.212 4.004 22.797 22.797 0 0 0 3.962 3.15c1.278.797 2.27 1.21 2.752 1.313.346.074.568.026.854-.123.294-.153.557-.353.958-.66.156-.119.332-.253.54-.407l.007-.006c.851-.632 1.77-1.315 2.934-1.314.573 0 1.09.162 1.55.35.441.18.948.435 1.509.718l.044.022c.977.493 2.432 1.329 3.84 2.24 1.385.895 2.84 1.938 3.745 2.849h.001c.423.428.77.797 1.028 1.123.25.317.518.72.63 1.218.127.56.013 1.027-.107 1.354a5.863 5.863 0 0 1-.185.441 7.56 7.56 0 0 0-.122.278l-.002.005c-.41.972-.91 1.904-1.49 2.785l-.004.005c-1.136 1.708-2.2 2.815-3.85 3.584-.858.4-2.082.803-3.99.565-1.838-.23-4.237-1.044-7.52-2.883-5.256-2.947-8.902-5.487-13.605-10.177-4.69-4.677-6.994-7.727-10.223-13.594C.096 11.871.113 8.254 1.027 6.301 1.8 4.65 2.918 3.592 4.62 2.46l.006-.004A17.285 17.285 0 0 1 7.414.971L7.42.97a10.655 10.655 0 0 0 .327-.144c.104-.046.246-.11.394-.163A2.354 2.354 0 0 1 9.492.555c.498.112.901.38 1.219.629ZM8.576 3.738c-.802.337-1.571.747-2.298 1.224-1.45.964-2.081 1.645-2.533 2.61-.31.663-.842 3.177 2.23 8.757 3.092 5.617 5.223 8.438 9.713 12.915 4.476 4.464 7.89 6.846 12.953 9.685 3.1 1.736 5.116 2.36 6.425 2.523 1.24.155 1.896-.095 2.351-.307.973-.453 1.657-1.08 2.619-2.524a14.17 14.17 0 0 0 1.228-2.295c.053-.127.105-.243.146-.335-.148-.18-.382-.432-.753-.807-.662-.666-1.884-1.563-3.245-2.444-1.338-.865-2.698-1.644-3.56-2.078-.62-.312-1.02-.513-1.337-.642-.31-.126-.409-.128-.42-.128-.005-.001-.136-.025-1.149.728-.107.08-.223.168-.345.262-.46.353-1.01.774-1.557 1.058-.812.423-1.742.636-2.865.396-.988-.21-2.328-.837-3.712-1.7a25.792 25.792 0 0 1-4.493-3.572 26.587 26.587 0 0 1-3.63-4.525c-.884-1.397-1.545-2.765-1.758-3.76-.242-1.128-.022-2.058.404-2.865.275-.523.686-1.062 1.029-1.511.102-.134.198-.26.282-.375M8.575 3.738c.13-.055.248-.107.34-.149.18.148.434.383.811.755l.002.002c.674.663 1.59 1.88 2.477 3.228.876 1.333 1.643 2.67 2.035 3.511m0 0c.285.613.472 1.023.592 1.347Zm.592 1.347c.118.318.129.444.129.487Zm.129.487v.004Zm0 .004c0 .042.003.201-.66 1.105Z"/></symbol><symbol id="icon-twiter" viewBox="0 0 22 17"><path d="M21.16 2.292a8.686 8.686 0 0 1-2.434.659A4.197 4.197 0 0 0 20.591.644a8.511 8.511 0 0 1-2.693 1.011A4.266 4.266 0 0 0 14.803.334c-2.342 0-4.238 1.868-4.238 4.17-.001.321.035.64.11.952a12.082 12.082 0 0 1-8.738-4.36 4.119 4.119 0 0 0-.576 2.096 4.16 4.16 0 0 0 1.894 3.473 4.197 4.197 0 0 1-1.928-.52v.051c0 2.023 1.464 3.706 3.4 4.09a4.377 4.377 0 0 1-1.116.146 4.11 4.11 0 0 1-.797-.078c.539 1.657 2.106 2.863 3.962 2.897A8.59 8.59 0 0 1 .5 14.977a11.995 11.995 0 0 0 6.488 1.885c7.806 0 12.07-6.357 12.07-11.87 0-.182-.004-.362-.012-.539a8.543 8.543 0 0 0 2.114-2.16Z"/></symbol></svg>