<?xml version="1.0" standalone="no"?>
<!DOCTYPE svg PUBLIC "-//W3C//DTD SVG 20010904//EN"
 "http://www.w3.org/TR/2001/REC-SVG-20010904/DTD/svg10.dtd">
<svg version="1.0" xmlns="http://www.w3.org/2000/svg"
 width="260.000000pt" height="260.000000pt" viewBox="0 0 260.000000 260.000000"
 preserveAspectRatio="xMidYMid meet">
<metadata>
Created by potrace 1.14, written by Peter Selinger 2001-2017
</metadata>
<g transform="translate(0.000000,260.000000) scale(0.100000,-0.100000)"
fill="#000000" stroke="none">
<path d="M1583 2224 c-25 -25 -25 -30 -21 -109 5 -66 12 -94 34 -135 57 -105
154 -161 281 -163 l65 -2 -6 -44 c-18 -145 -141 -260 -326 -304 -154 -37 -203
-39 -895 -41 -693 -2 -665 1 -700 -72 -44 -94 45 -377 173 -544 90 -118 212
-220 339 -284 66 -33 185 -73 243 -81 24 -4 48 -9 52 -11 3 -2 60 -5 125 -5
l118 -1 89 -44 c48 -24 98 -44 111 -44 32 0 75 37 75 64 0 21 7 24 71 35 275
45 493 221 629 506 78 164 136 392 156 610 11 124 13 151 13 205 l1 55 71 2
c39 1 88 8 108 14 128 42 206 153 210 299 2 63 -1 72 -23 95 -26 26 -79 34
-91 15 -8 -13 -79 -49 -120 -62 -16 -5 -65 -11 -107 -13 -43 -3 -101 -14 -133
-26 -37 -14 -60 -18 -68 -11 -23 18 -83 32 -158 37 -90 5 -125 15 -195 55 -66
37 -87 38 -121 4z m191 -129 c32 -9 88 -18 124 -20 37 -1 72 -3 78 -4 6 0 32
-15 58 -32 l47 -32 27 20 c52 38 78 46 157 50 77 3 159 22 200 47 48 29 52 27
44 -23 -11 -83 -41 -130 -108 -169 -37 -22 -57 -26 -149 -29 -59 -2 -110 -7
-115 -12 -4 -4 -17 -51 -28 -104 -82 -402 -329 -689 -679 -790 -142 -41 -164
-43 -202 -13 -98 74 -219 64 -306 -25 l-32 -33 -117 1 c-170 2 -282 17 -450
58 -168 41 -167 40 -198 137 -34 105 -43 189 -23 206 11 9 170 12 649 13 666
1 748 5 903 45 231 60 356 205 380 441 7 67 -4 73 -125 76 -94 3 -111 6 -153
31 -53 31 -93 85 -101 136 -4 19 -8 45 -11 58 l-5 23 39 -20 c20 -10 64 -27
96 -36z m320 -652 c-2 -16 -7 -44 -10 -63 -3 -19 -8 -48 -11 -65 -9 -56 -73
-256 -103 -322 -73 -160 -195 -304 -322 -378 -110 -65 -317 -119 -319 -84 0 8
-2 23 -5 34 -2 11 -6 76 -9 145 -3 69 -8 135 -11 148 -3 16 0 22 13 23 48 2
193 44 268 78 147 67 321 210 402 329 21 31 41 59 44 62 7 5 52 90 55 103 3
16 4 17 8 17 3 0 3 -12 0 -27z m-948 -513 c60 -30 72 -62 79 -211 3 -68 7
-135 10 -149 15 -85 16 -130 3 -130 -28 0 -134 72 -182 123 -66 69 -98 143
-99 228 -1 58 2 71 26 102 25 33 64 53 106 56 8 1 34 -8 57 -19z m-786 -43
c165 -34 182 -36 345 -43 77 -3 145 -7 151 -9 6 -2 12 -25 12 -50 2 -66 25
-140 67 -209 19 -32 35 -60 35 -61 0 -10 -158 9 -224 26 -144 37 -279 108
-382 201 -49 45 -165 192 -138 176 5 -4 65 -17 134 -31z"/>
<path d="M670 1232 c-37 -20 -70 -72 -70 -110 0 -39 30 -90 65 -112 105 -65
239 41 195 155 -29 76 -115 106 -190 67z m104 -94 c14 -23 -3 -52 -33 -56 -42
-6 -67 38 -39 66 17 17 58 11 72 -10z"/>
</g>
</svg>
